# xmcd
#
# Track frame offsets: 
#        150
#        70762
#        199215
#
# Disc length: 4176 seconds
#
# Revision: 1
# Processed by: cddbd v1.5.2PL0 Copyright (c) Steve Scherf et al.
# Submitted via: ExactAudioCopy v0.95b4
#
DISCID=25104e03
DTITLE=Wand and NDR - Bruckner - Symphony No.9(1988) and 8(1987)
DYEAR=1995
DGENRE=Symphony
TTITLE0=8-2. Scherzo. Allegro moderato
TTITLE1=8-3. Adagio. Feierlich langsam, doch nicht schleppend
TTITLE2=8-4. Finale. Feierlich, nicht schnell
EXTD=
EXTT0=
EXTT1=
EXTT2=
PLAYORDER=
